<svg width="63" height="63" viewBox="0 0 63 63" fill="none" xmlns="http://www.w3.org/2000/svg">
<path d="M31.7869 56.8546H31.5284C27.9841 56.8276 24.4808 56.0937 21.2237 54.6959C17.9666 53.298 15.0211 51.2644 12.5597 48.714C7.99539 43.833 5.40084 37.4344 5.27676 30.7529C5.15268 24.0715 7.50785 17.5809 11.8877 12.5338C14.7095 9.37152 18.2568 6.9416 22.225 5.45283C22.688 5.27466 23.1925 5.23353 23.6782 5.33435C24.164 5.43517 24.6104 5.67367 24.9643 6.02138C25.292 6.35558 25.5229 6.77253 25.6321 7.22769C25.7413 7.68285 25.7249 8.15913 25.5845 8.60568C24.1682 12.4845 23.8876 16.6869 24.7757 20.7196C25.6637 24.7524 27.6835 28.4482 30.5981 31.3734C33.5399 34.279 37.2444 36.292 41.2829 37.1793C45.3214 38.0666 49.5286 37.7918 53.4175 36.3869C53.8803 36.224 54.38 36.1962 54.8581 36.3068C55.3362 36.4174 55.7729 36.6619 56.1171 37.0116C56.4614 37.3612 56.699 37.8017 56.8021 38.2815C56.9053 38.7612 56.8697 39.2604 56.6995 39.7207C55.3794 43.2449 53.317 46.4442 50.6523 49.1017C48.1735 51.573 45.2308 53.5302 41.9932 54.8607C38.7557 56.1912 35.2871 56.8688 31.7869 56.8546V56.8546ZM19.2788 12.7147C17.9807 13.6252 16.7926 14.6832 15.7384 15.8676C12.1837 19.9408 10.2685 25.1889 10.364 30.5942C10.4595 35.9995 12.5589 41.1767 16.2552 45.1218C18.2413 47.1846 20.6208 48.8283 23.253 49.9557C25.8852 51.0832 28.7167 51.6715 31.5801 51.686H31.7869C35.2141 51.684 38.5916 50.8648 41.6388 49.2962C44.6861 47.7276 47.3153 45.4549 49.3084 42.6668C45.2468 43.1931 41.1186 42.7814 37.2409 41.4635C33.3631 40.1456 29.839 37.9564 26.9393 35.0641C24.0395 32.1719 21.8413 28.6534 20.5133 24.7791C19.1854 20.9048 18.7631 16.7777 19.2788 12.7147V12.7147Z" fill="#FBFADC"/>
</svg>
